<mxfile host="app.diagrams.net" modified="2022-02-16T13:43:19.145Z" agent="5.0 (Windows NT 10.0; Win64; x64) AppleWebKit/537.36 (KHTML, like Gecko) Chrome/98.0.4758.82 Safari/537.36" etag="R4CyybELbXthBYTv0M6n" version="16.5.6" type="github">
  <diagram name="Page-1" id="ad52d381-51e7-2e0d-a935-2d0ddd2fd229">
    <mxGraphModel dx="1209" dy="671" grid="1" gridSize="10" guides="1" tooltips="1" connect="1" arrows="1" fold="1" page="1" pageScale="1" pageWidth="1100" pageHeight="850" background="none" math="0" shadow="0">
      <root>
        <mxCell id="0" />
        <mxCell id="1" parent="0" />
        <mxCell id="Bzy22qKtETdh9MJUDQEl-1" value="FACT_FIELD" style="ellipse;whiteSpace=wrap;html=1;rounded=1;shadow=1;comic=0;labelBackgroundColor=none;strokeWidth=2;fontFamily=Verdana;fontSize=12;align=center;fillColor=#f5f5f5;fontColor=#333333;strokeColor=#666666;" vertex="1" parent="1">
          <mxGeometry x="500" y="170" width="120" height="120" as="geometry" />
        </mxCell>
        <mxCell id="Bzy22qKtETdh9MJUDQEl-2" value="IND METADATA" style="whiteSpace=wrap;html=1;rounded=1;shadow=1;comic=0;labelBackgroundColor=none;strokeWidth=2;fontFamily=Verdana;fontSize=12;align=center;arcSize=50;opacity=30;textOpacity=20;" vertex="1" parent="1">
          <mxGeometry x="170" y="90" width="100" height="20" as="geometry" />
        </mxCell>
        <mxCell id="Bzy22qKtETdh9MJUDQEl-23" style="edgeStyle=orthogonalEdgeStyle;rounded=0;orthogonalLoop=1;jettySize=auto;html=1;exitX=1;exitY=0.5;exitDx=0;exitDy=0;fontSize=11;curved=1;" edge="1" parent="1" source="Bzy22qKtETdh9MJUDQEl-5" target="Bzy22qKtETdh9MJUDQEl-1">
          <mxGeometry relative="1" as="geometry" />
        </mxCell>
        <mxCell id="Bzy22qKtETdh9MJUDQEl-5" value="DIM_INDICATOR" style="rounded=1;whiteSpace=wrap;html=1;fillColor=#dae8fc;strokeColor=#6c8ebf;" vertex="1" parent="1">
          <mxGeometry x="380" y="88" width="120" height="60" as="geometry" />
        </mxCell>
        <mxCell id="Bzy22qKtETdh9MJUDQEl-24" style="edgeStyle=orthogonalEdgeStyle;curved=1;rounded=0;orthogonalLoop=1;jettySize=auto;html=1;exitX=0.25;exitY=1;exitDx=0;exitDy=0;entryX=0.944;entryY=0.22;entryDx=0;entryDy=0;entryPerimeter=0;fontSize=11;" edge="1" parent="1" source="Bzy22qKtETdh9MJUDQEl-6" target="Bzy22qKtETdh9MJUDQEl-1">
          <mxGeometry relative="1" as="geometry" />
        </mxCell>
        <mxCell id="Bzy22qKtETdh9MJUDQEl-6" value="DIM_ADMINISTRATIVE_LEVEL" style="rounded=1;whiteSpace=wrap;html=1;fillColor=#dae8fc;strokeColor=#6c8ebf;" vertex="1" parent="1">
          <mxGeometry x="620" y="80" width="200" height="60" as="geometry" />
        </mxCell>
        <mxCell id="Bzy22qKtETdh9MJUDQEl-7" value="ACTIVITY" style="whiteSpace=wrap;html=1;rounded=1;shadow=1;comic=0;labelBackgroundColor=none;strokeWidth=2;fontFamily=Verdana;fontSize=12;align=center;arcSize=50;opacity=30;textOpacity=20;" vertex="1" parent="1">
          <mxGeometry x="170" y="120" width="100" height="20" as="geometry" />
        </mxCell>
        <mxCell id="Bzy22qKtETdh9MJUDQEl-8" value="SECTOR" style="whiteSpace=wrap;html=1;rounded=1;shadow=1;comic=0;labelBackgroundColor=none;strokeWidth=2;fontFamily=Verdana;fontSize=12;align=center;arcSize=50;opacity=30;textOpacity=20;" vertex="1" parent="1">
          <mxGeometry x="170" y="148" width="100" height="20" as="geometry" />
        </mxCell>
        <mxCell id="Bzy22qKtETdh9MJUDQEl-9" value="AGE GROUP" style="whiteSpace=wrap;html=1;rounded=1;shadow=1;comic=0;labelBackgroundColor=none;strokeWidth=2;fontFamily=Verdana;fontSize=12;align=center;arcSize=50;opacity=30;textOpacity=20;" vertex="1" parent="1">
          <mxGeometry x="170" y="175" width="100" height="20" as="geometry" />
        </mxCell>
        <mxCell id="Bzy22qKtETdh9MJUDQEl-10" value="GENDER" style="whiteSpace=wrap;html=1;rounded=1;shadow=1;comic=0;labelBackgroundColor=none;strokeWidth=2;fontFamily=Verdana;fontSize=12;align=center;arcSize=50;opacity=30;textOpacity=20;" vertex="1" parent="1">
          <mxGeometry x="170" y="200" width="100" height="20" as="geometry" />
        </mxCell>
        <mxCell id="Bzy22qKtETdh9MJUDQEl-11" value="&lt;font style=&quot;font-size: 11px&quot;&gt;REPEAT_NUMBER&lt;/font&gt;" style="whiteSpace=wrap;html=1;rounded=1;shadow=1;comic=0;labelBackgroundColor=none;strokeWidth=2;fontFamily=Verdana;fontSize=12;align=center;arcSize=50;opacity=30;textOpacity=20;" vertex="1" parent="1">
          <mxGeometry x="170" y="227" width="100" height="20" as="geometry" />
        </mxCell>
        <mxCell id="Bzy22qKtETdh9MJUDQEl-25" style="edgeStyle=orthogonalEdgeStyle;curved=1;rounded=0;orthogonalLoop=1;jettySize=auto;html=1;exitX=1;exitY=0.5;exitDx=0;exitDy=0;entryX=-0.027;entryY=0.569;entryDx=0;entryDy=0;entryPerimeter=0;fontSize=11;" edge="1" parent="1" source="Bzy22qKtETdh9MJUDQEl-12" target="Bzy22qKtETdh9MJUDQEl-1">
          <mxGeometry relative="1" as="geometry" />
        </mxCell>
        <mxCell id="Bzy22qKtETdh9MJUDQEl-12" value="DIM_STAFF" style="rounded=1;whiteSpace=wrap;html=1;fillColor=#dae8fc;strokeColor=#6c8ebf;" vertex="1" parent="1">
          <mxGeometry x="310" y="260" width="120" height="60" as="geometry" />
        </mxCell>
        <mxCell id="Bzy22qKtETdh9MJUDQEl-26" style="edgeStyle=orthogonalEdgeStyle;curved=1;rounded=0;orthogonalLoop=1;jettySize=auto;html=1;exitX=0.5;exitY=0;exitDx=0;exitDy=0;entryX=0.418;entryY=1.028;entryDx=0;entryDy=0;entryPerimeter=0;fontSize=11;" edge="1" parent="1" source="Bzy22qKtETdh9MJUDQEl-13" target="Bzy22qKtETdh9MJUDQEl-1">
          <mxGeometry relative="1" as="geometry" />
        </mxCell>
        <mxCell id="Bzy22qKtETdh9MJUDQEl-13" value="DIM_OBSERVATION" style="rounded=1;whiteSpace=wrap;html=1;fillColor=#dae8fc;strokeColor=#6c8ebf;" vertex="1" parent="1">
          <mxGeometry x="460" y="365" width="120" height="60" as="geometry" />
        </mxCell>
        <mxCell id="Bzy22qKtETdh9MJUDQEl-27" style="edgeStyle=orthogonalEdgeStyle;curved=1;rounded=0;orthogonalLoop=1;jettySize=auto;html=1;exitX=0.5;exitY=0;exitDx=0;exitDy=0;entryX=0.929;entryY=0.813;entryDx=0;entryDy=0;entryPerimeter=0;fontSize=11;" edge="1" parent="1" source="Bzy22qKtETdh9MJUDQEl-14" target="Bzy22qKtETdh9MJUDQEl-1">
          <mxGeometry relative="1" as="geometry" />
        </mxCell>
        <mxCell id="Bzy22qKtETdh9MJUDQEl-14" value="DIM_COMMENT" style="rounded=1;whiteSpace=wrap;html=1;fillColor=#dae8fc;strokeColor=#6c8ebf;" vertex="1" parent="1">
          <mxGeometry x="620" y="320" width="120" height="60" as="geometry" />
        </mxCell>
        <mxCell id="Bzy22qKtETdh9MJUDQEl-29" style="edgeStyle=orthogonalEdgeStyle;curved=1;rounded=0;orthogonalLoop=1;jettySize=auto;html=1;exitX=0;exitY=0.5;exitDx=0;exitDy=0;fontSize=11;" edge="1" parent="1" source="Bzy22qKtETdh9MJUDQEl-15" target="Bzy22qKtETdh9MJUDQEl-1">
          <mxGeometry relative="1" as="geometry" />
        </mxCell>
        <mxCell id="Bzy22qKtETdh9MJUDQEl-15" value="DIM_DATE" style="rounded=1;whiteSpace=wrap;html=1;fillColor=#dae8fc;strokeColor=#6c8ebf;" vertex="1" parent="1">
          <mxGeometry x="740" y="180" width="120" height="60" as="geometry" />
        </mxCell>
        <mxCell id="Bzy22qKtETdh9MJUDQEl-16" value="REPORTING_FREQ" style="shape=process;whiteSpace=wrap;html=1;backgroundOutline=1;fontSize=11;opacity=30;fillColor=#f8cecc;strokeColor=#b85450;" vertex="1" parent="1">
          <mxGeometry x="880" y="135" width="120" height="60" as="geometry" />
        </mxCell>
        <mxCell id="Bzy22qKtETdh9MJUDQEl-18" value="METADATA DATES" style="shape=process;whiteSpace=wrap;html=1;backgroundOutline=1;fontSize=11;opacity=30;fillColor=#f8cecc;strokeColor=#b85450;" vertex="1" parent="1">
          <mxGeometry x="880" y="280" width="120" height="60" as="geometry" />
        </mxCell>
        <mxCell id="Bzy22qKtETdh9MJUDQEl-19" value="LEVEL 1" style="whiteSpace=wrap;html=1;rounded=1;shadow=1;comic=0;labelBackgroundColor=none;strokeWidth=2;fontFamily=Verdana;fontSize=12;align=center;arcSize=50;opacity=30;textOpacity=20;" vertex="1" parent="1">
          <mxGeometry x="620" y="2" width="100" height="20" as="geometry" />
        </mxCell>
        <mxCell id="Bzy22qKtETdh9MJUDQEl-20" value="LEVEL 2,...6" style="whiteSpace=wrap;html=1;rounded=1;shadow=1;comic=0;labelBackgroundColor=none;strokeWidth=2;fontFamily=Verdana;fontSize=12;align=center;arcSize=50;opacity=30;textOpacity=20;" vertex="1" parent="1">
          <mxGeometry x="620" y="30" width="100" height="20" as="geometry" />
        </mxCell>
        <mxCell id="Bzy22qKtETdh9MJUDQEl-28" value="OBSERVATION METADATA DATES" style="whiteSpace=wrap;html=1;rounded=1;shadow=1;comic=0;labelBackgroundColor=none;strokeWidth=2;fontFamily=Verdana;fontSize=12;align=center;arcSize=50;fillColor=#f5f5f5;fontColor=#333333;strokeColor=#666666;" vertex="1" parent="1">
          <mxGeometry x="460" y="440" width="230" height="20" as="geometry" />
        </mxCell>
        <mxCell id="Bzy22qKtETdh9MJUDQEl-35" style="edgeStyle=orthogonalEdgeStyle;curved=1;rounded=0;orthogonalLoop=1;jettySize=auto;html=1;exitX=1;exitY=0.5;exitDx=0;exitDy=0;fontSize=11;" edge="1" parent="1" source="Bzy22qKtETdh9MJUDQEl-31" target="Bzy22qKtETdh9MJUDQEl-1">
          <mxGeometry relative="1" as="geometry" />
        </mxCell>
        <mxCell id="Bzy22qKtETdh9MJUDQEl-31" value="DIM_BENEFICIARY" style="rounded=1;whiteSpace=wrap;html=1;fillColor=#dae8fc;strokeColor=#6c8ebf;" vertex="1" parent="1">
          <mxGeometry x="320" y="167" width="120" height="60" as="geometry" />
        </mxCell>
        <mxCell id="Bzy22qKtETdh9MJUDQEl-32" value="STAFF ROLE" style="whiteSpace=wrap;html=1;rounded=1;shadow=1;comic=0;labelBackgroundColor=none;strokeWidth=2;fontFamily=Verdana;fontSize=12;align=center;arcSize=50;opacity=30;textOpacity=20;" vertex="1" parent="1">
          <mxGeometry x="310" y="340" width="100" height="20" as="geometry" />
        </mxCell>
        <mxCell id="Bzy22qKtETdh9MJUDQEl-33" value="STAFF, CASUAL, REPORTER, SUPERVISOR" style="text;html=1;align=center;verticalAlign=middle;resizable=0;points=[];autosize=1;strokeColor=none;fillColor=none;fontSize=11;" vertex="1" parent="1">
          <mxGeometry x="170" y="365" width="240" height="20" as="geometry" />
        </mxCell>
      </root>
    </mxGraphModel>
  </diagram>
</mxfile>
